<svg xmlns="http://www.w3.org/2000/svg" fill="none" viewBox="0 0 348 348"><path stroke="#000" stroke-width="6.1" d="M3 3h343v343H3Z"/><g fill="#000"><circle cx="69.2" cy="69.2" r="3.2"/><circle cx="138.3" cy="69.2" r="3.2"/><circle cx="207.5" cy="69.2" r="3.2"/><circle cx="276.7" cy="69.2" r="3.2"/><circle cx="69.2" cy="138.3" r="3.2"/><circle cx="138.3" cy="138.3" r="3.2"/><circle cx="207.5" cy="138.3" r="3.2"/><circle cx="276.7" cy="138.3" r="3.2"/><circle cx="69.2" cy="207.5" r="3.2"/><circle cx="138.3" cy="207.5" r="3.2"/><circle cx="207.5" cy="207.5" r="3.2"/><circle cx="276.7" cy="207.5" r="3.2"/><circle cx="69.2" cy="276.7" r="3.2"/><circle cx="138.3" cy="276.7" r="3.2"/><circle cx="207.5" cy="276.7" r="3.2"/><circle cx="276.7" cy="276.7" r="3.2"/></g><path stroke="#000" stroke-width="6" d="M138 0v69M207 69h70M69 69v69h138v139M277 138h69M277 207v70M138 277v69"/><path stroke="#000" stroke-width="6" d="M69 277v-70h69"/><path fill="red" d="m133 57-6 6 6 6-6 6 6 6 5-6 6 6 6-6-6-6 6-6-6-6-6 6-5-6M63 57l-6 6 6 6-6 6 6 6 6-6 6 6 6-6-6-6 6-6-6-6-6 6-6-6M133 266l-6 6 6 5-6 6 6 6 5-6 6 6 6-6-6-6 6-5-6-6-6 6-5-6M202 196l-6 6 6 6-6 6 6 6 6-6 5 6 6-6-6-6 6-6-6-6-5 6-6-6"/><g stroke="#000" stroke-width="6"><path d="m35 58-15-6-7-15 7-15 15-7 15 7 6 15-6 15zM103 58l-15-6-6-15 6-15 15-7 15 7 7 15-7 15zM172 58l-15-6-6-15 6-15 15-7 16 7 6 15-6 15zM242 58l-15-6-6-15 6-15 15-7 16 7 6 15-6 15zM310 58l-15-6-6-15 6-15 15-7 16 7 6 15-6 15zM35 126l-15-6-7-15 7-15 15-7 15 7 6 15-6 15zM103 126l-15-6-6-15 6-15 15-7 15 7 7 15-7 15zM172 126l-15-6-6-15 6-15 15-7 16 7 6 15-6 15zM242 126l-15-6-6-15 6-15 15-7 16 7 6 15-6 15zM310 126l-15-6-6-15 6-15 15-7 16 7 6 15-6 15zM35 196l-15-6-7-15 7-15 15-7 15 7 6 15-6 15zM103 196l-15-6-6-15 6-15 15-7 15 7 7 15-7 15zM172 196l-15-6-6-15 6-15 15-7 16 7 6 15-6 15zM242 196l-15-6-6-15 6-15 15-7 16 7 6 15-6 15zM310 196l-15-6-6-15 6-15 15-7 16 7 6 15-6 15zM35 264l-15-6-7-15 7-15 15-7 15 7 6 15-6 15zM103 264l-15-6-6-15 6-15 15-7 15 7 7 15-7 15zM172 264l-15-6-6-15 6-15 15-7 16 7 6 15-6 15zM242 264l-15-6-6-15 6-15 15-7 16 7 6 15-6 15zM310 264l-15-6-6-15 6-15 15-7 16 7 6 15-6 15zM35 332l-15-6-7-15 7-15 15-7 15 7 6 15-6 15zM103 332l-15-6-6-15 6-15 15-7 15 7 7 15-7 15zM172 332l-15-6-6-15 6-15 15-7 16 7 6 15-6 15zM242 332l-15-6-6-15 6-15 15-7 16 7 6 15-6 15zM310 332l-15-6-6-15 6-15 15-7 16 7 6 15-6 15z"/></g></svg>