<svg xmlns="http://www.w3.org/2000/svg" fill="none" viewBox="0 0 348 348"><path stroke="#000" stroke-width="6" d="M138 346v-69"/><path stroke="#000" stroke-width="6.1" d="M3 3h343v343H3Z"/><g fill="#000"><circle cx="69.2" cy="69.2" r="3.2"/><circle cx="138.3" cy="69.2" r="3.2"/><circle cx="207.5" cy="69.2" r="3.2"/><circle cx="276.7" cy="69.2" r="3.2"/><circle cx="69.2" cy="138.3" r="3.2"/><circle cx="138.3" cy="138.3" r="3.2"/><circle cx="207.5" cy="138.3" r="3.2"/><circle cx="276.7" cy="138.3" r="3.2"/><circle cx="69.2" cy="207.5" r="3.2"/><circle cx="138.3" cy="207.5" r="3.2"/><circle cx="207.5" cy="207.5" r="3.2"/><circle cx="276.7" cy="207.5" r="3.2"/><circle cx="69.2" cy="276.7" r="3.2"/><circle cx="138.3" cy="276.7" r="3.2"/><circle cx="207.5" cy="276.7" r="3.2"/><circle cx="276.7" cy="276.7" r="3.2"/></g><path stroke="#000" stroke-width="6" d="M69 69h138v69M277 69v138M277 277h-70v-70h-69M0 138h138M69 207v70"/><path fill="red" d="m133 57-6 6 6 6-6 6 6 6 6-6 5 6 6-6-6-6 6-6-6-6-5 6-6-6M133 126l-6 6 6 6-6 6 6 6 6-6 5 6 6-6-6-6 6-6-6-6-5 6-6-6M271 126l-6 6 6 6-6 6 6 6 6-6 6 6 6-6-6-6 6-6-6-6-6 6-6-6M201 195l-6 6 6 6-6 6 6 6 6-6 6 6 6-6-6-6 6-6-6-6-6 6-6-6"/><g stroke="#000" stroke-width="6"><path d="m35 58-15-6-6-15 6-15 15-6 15 6 7 15-7 15zM104 58l-15-6-7-15 7-15 15-6 15 6 6 15-6 15zM173 58l-15-6-7-15 7-15 15-6 15 6 6 15-6 15zM243 58l-15-6-7-15 7-15 15-6 15 6 6 15-6 15zM311 58l-15-6-7-15 7-15 15-6 15 6 6 15-6 15zM35 126l-15-6-6-15 6-15 15-6 15 6 7 15-7 15zM104 126l-15-6-7-15 7-15 15-6 15 6 6 15-6 15zM173 126l-15-6-7-15 7-15 15-6 15 6 6 15-6 15zM243 126l-15-6-7-15 7-15 15-6 15 6 6 15-6 15zM311 126l-15-6-7-15 7-15 15-6 15 6 6 15-6 15zM35 196l-15-6-6-15 6-15 15-6 15 6 7 15-7 15zM104 196l-15-6-7-15 7-15 15-6 15 6 6 15-6 15zM173 196l-15-6-7-15 7-15 15-6 15 6 6 15-6 15zM243 196l-15-6-7-15 7-15 15-6 15 6 6 15-6 15zM311 196l-15-6-7-15 7-15 15-6 15 6 6 15-6 15zM35 264l-15-6-6-15 6-15 15-6 15 6 7 15-7 15zM104 264l-15-6-7-15 7-15 15-6 15 6 6 15-6 15zM173 264l-15-6-7-15 7-15 15-6 15 6 6 15-6 15zM243 264l-15-6-7-15 7-15 15-6 15 6 6 15-6 15zM311 264l-15-6-7-15 7-15 15-6 15 6 6 15-6 15zM35 332l-15-6-6-15 6-15 15-6 15 6 7 15-7 15zM104 332l-15-6-7-15 7-15 15-6 15 6 6 15-6 15zM173 332l-15-6-7-15 7-15 15-6 15 6 6 15-6 15zM243 332l-15-6-7-15 7-15 15-6 15 6 6 15-6 15zM311 332l-15-6-7-15 7-15 15-6 15 6 6 15-6 15z"/></g></svg>