<svg xmlns="http://www.w3.org/2000/svg" fill="none" viewBox="0 0 348 348"><path stroke="#000" stroke-width="6.1" d="M3 3h343v343H3Z"/><g fill="#000"><circle cx="69.2" cy="69.2" r="3.2"/><circle cx="138.3" cy="69.2" r="3.2"/><circle cx="207.5" cy="69.2" r="3.2"/><circle cx="276.7" cy="69.2" r="3.2"/><circle cx="69.2" cy="138.3" r="3.2"/><circle cx="138.3" cy="138.3" r="3.2"/><circle cx="207.5" cy="138.3" r="3.2"/><circle cx="276.7" cy="138.3" r="3.2"/><circle cx="69.2" cy="207.5" r="3.2"/><circle cx="138.3" cy="207.5" r="3.2"/><circle cx="207.5" cy="207.5" r="3.2"/><circle cx="276.7" cy="207.5" r="3.2"/><circle cx="69.2" cy="276.7" r="3.2"/><circle cx="138.3" cy="276.7" r="3.2"/><circle cx="207.5" cy="276.7" r="3.2"/><circle cx="276.7" cy="276.7" r="3.2"/></g><path stroke="#000" stroke-width="6" d="M207 0v69M138 69v69h139V69M207 138v69M69 69v69M138 207H69v70M138 277v69M207 277h70v-70"/><path fill="red" d="m202 57-6 6 6 6-6 6 6 6 6-6 5 6 6-6-6-6 6-6-6-6-5 6-6-6M270 57l-5 6 5 6-5 6 5 6 6-6 6 6 6-6-6-6 6-6-6-6-6 6-6-6M271 196l-6 6 6 6-6 5 6 6 6-6 6 6 6-6-6-5 6-6-6-6-6 6-6-6M132 265l-5 6 5 6-5 6 5 6 6-6 6 6 6-6-6-6 6-6-6-6-6 6-6-6"/><g stroke="#000" stroke-width="6"><path d="m35 59-15-7-6-15 6-15 15-6 15 6 7 15-7 15zM104 59l-15-7-7-15 7-15 15-6 15 6 6 15-6 15zM173 59l-15-7-7-15 7-15 15-6 15 6 6 15-6 15zM243 59l-15-7-7-15 7-15 15-6 15 6 6 15-6 15zM311 59l-15-7-7-15 7-15 15-6 15 6 6 15-6 15zM35 127l-15-7-6-15 6-15 15-6 15 6 7 15-7 15zM104 127l-15-7-7-15 7-15 15-6 15 6 6 15-6 15zM173 127l-15-7-7-15 7-15 15-6 15 6 6 15-6 15zM243 127l-15-7-7-15 7-15 15-6 15 6 6 15-6 15zM311 127l-15-7-7-15 7-15 15-6 15 6 6 15-6 15zM35 197l-15-7-6-15 6-15 15-6 15 6 7 15-7 15zM104 197l-15-7-7-15 7-15 15-6 15 6 6 15-6 15zM173 197l-15-7-7-15 7-15 15-6 15 6 6 15-6 15zM243 197l-15-7-7-15 7-15 15-6 15 6 6 15-6 15zM311 197l-15-7-7-15 7-15 15-6 15 6 6 15-6 15zM35 265l-15-7-6-15 6-15 15-6 15 6 7 15-7 15zM104 265l-15-7-7-15 7-15 15-6 15 6 6 15-6 15zM173 265l-15-7-7-15 7-15 15-6 15 6 6 15-6 15zM243 265l-15-7-7-15 7-15 15-6 15 6 6 15-6 15zM311 265l-15-7-7-15 7-15 15-6 15 6 6 15-6 15zM35 333l-15-7-6-15 6-15 15-6 15 6 7 15-7 15zM104 333l-15-7-7-15 7-15 15-6 15 6 6 15-6 15zM173 333l-15-7-7-15 7-15 15-6 15 6 6 15-6 15zM243 333l-15-7-7-15 7-15 15-6 15 6 6 15-6 15zM311 333l-15-7-7-15 7-15 15-6 15 6 6 15-6 15z"/></g></svg>