<svg xmlns="http://www.w3.org/2000/svg" fill="none" viewBox="0 0 348 348"><g stroke="#000" stroke-width="6"><path d="m35 58-15-6-6-16 6-15 15-6 16 6 6 15-6 16zM104 58l-15-6-6-16 6-15 15-6 15 6 6 15-6 16zM173 58l-15-6-6-16 6-15 15-6 15 6 7 15-7 16zM243 58l-15-6-6-16 6-15 15-6 15 6 7 15-7 16zM311 58l-15-6-6-16 6-15 15-6 15 6 7 15-7 16zM35 126l-15-6-6-16 6-15 15-6 16 6 6 15-6 16zM104 126l-15-6-6-16 6-15 15-6 15 6 6 15-6 16zM173 126l-15-6-6-16 6-15 15-6 15 6 7 15-7 16zM243 126l-15-6-6-16 6-15 15-6 15 6 7 15-7 16zM311 126l-15-6-6-16 6-15 15-6 15 6 7 15-7 16zM35 196l-15-6-6-16 6-15 15-6 16 6 6 15-6 16zM104 196l-15-6-6-16 6-15 15-6 15 6 6 15-6 16zM173 196l-15-6-6-16 6-15 15-6 15 6 7 15-7 16zM243 196l-15-6-6-16 6-15 15-6 15 6 7 15-7 16zM311 196l-15-6-6-16 6-15 15-6 15 6 7 15-7 16zM35 264l-15-6-6-16 6-15 15-6 16 6 6 15-6 16zM104 264l-15-6-6-16 6-15 15-6 15 6 6 15-6 16zM173 264l-15-6-6-16 6-15 15-6 15 6 7 15-7 16zM243 264l-15-6-6-16 6-15 15-6 15 6 7 15-7 16zM311 264l-15-6-6-16 6-15 15-6 15 6 7 15-7 16zM35 332l-15-6-6-16 6-15 15-6 16 6 6 15-6 16zM104 332l-15-6-6-16 6-15 15-6 15 6 6 15-6 16zM173 332l-15-6-6-16 6-15 15-6 15 6 7 15-7 16zM243 332l-15-6-6-16 6-15 15-6 15 6 7 15-7 16zM311 332l-15-6-6-16 6-15 15-6 15 6 7 15-7 16z"/></g><path stroke="#000" stroke-width="6.1" d="M3 3h343v343H3Z"/><g fill="#000"><circle cx="69.2" cy="69.2" r="3.2"/><circle cx="138.3" cy="69.2" r="3.2"/><circle cx="207.5" cy="69.2" r="3.2"/><circle cx="276.7" cy="69.2" r="3.2"/><circle cx="69.2" cy="138.3" r="3.2"/><circle cx="138.3" cy="138.3" r="3.2"/><circle cx="207.5" cy="138.3" r="3.2"/><circle cx="276.7" cy="138.3" r="3.2"/><circle cx="69.2" cy="207.5" r="3.2"/><circle cx="138.3" cy="207.5" r="3.2"/><circle cx="207.5" cy="207.5" r="3.2"/><circle cx="276.7" cy="207.5" r="3.2"/><circle cx="69.2" cy="276.7" r="3.2"/><circle cx="138.3" cy="276.7" r="3.2"/><circle cx="207.5" cy="276.7" r="3.2"/><circle cx="276.7" cy="276.7" r="3.2"/></g><path stroke="#000" stroke-width="6" d="M138 69H69M69 138V69M207 69V0M207 138h70M277 69v69M138 138v69M0 207h207M277 207v70M69 277h69M207 277v69"/><path fill="red" d="m270 196-5 6 5 5-5 6 5 6 6-6 6 6 6-6-6-6 6-5-6-6-6 6-6-6M271 127l-6 6 6 6-6 6 6 5 6-5 6 5 5-5-5-6 5-6-5-6-6 6-6-6M133 265l-6 6 6 6-6 6 6 5 6-5 6 5 5-5-5-6 5-6-5-6-6 6-6-6M63 196l-6 5 6 6-6 6 6 6 6-6 6 6 6-6-6-6 6-6-6-5-6 5-6-5"/></svg>