<svg xmlns="http://www.w3.org/2000/svg" fill="none" viewBox="0 0 348 348"><g stroke="#000" stroke-width="6"><path d="m35 58-15-6-6-16 6-15 15-6 16 6 6 15-6 16zM104 58l-15-6-6-16 6-15 15-6 15 6 6 15-6 16zM173 58l-15-6-6-16 6-15 15-6 15 6 7 15-7 16zM243 58l-15-6-6-16 6-15 15-6 15 6 7 15-7 16zM311 58l-15-6-6-16 6-15 15-6 15 6 7 15-7 16zM35 126l-15-6-6-16 6-15 15-6 16 6 6 15-6 16zM104 126l-15-6-6-16 6-15 15-6 15 6 6 15-6 16zM173 126l-15-6-6-16 6-15 15-6 15 6 7 15-7 16zM243 126l-15-6-6-16 6-15 15-6 15 6 7 15-7 16zM311 126l-15-6-6-16 6-15 15-6 15 6 7 15-7 16zM35 196l-15-6-6-16 6-15 15-6 16 6 6 15-6 16zM104 196l-15-6-6-16 6-15 15-6 15 6 6 15-6 16zM173 196l-15-6-6-16 6-15 15-6 15 6 7 15-7 16zM243 196l-15-6-6-16 6-15 15-6 15 6 7 15-7 16zM311 196l-15-6-6-16 6-15 15-6 15 6 7 15-7 16zM35 264l-15-6-6-16 6-15 15-6 16 6 6 15-6 16zM104 264l-15-6-6-16 6-15 15-6 15 6 6 15-6 16zM173 264l-15-6-6-16 6-15 15-6 15 6 7 15-7 16zM243 264l-15-6-6-16 6-15 15-6 15 6 7 15-7 16zM311 264l-15-6-6-16 6-15 15-6 15 6 7 15-7 16zM35 332l-15-6-6-16 6-15 15-6 16 6 6 15-6 16zM104 332l-15-6-6-16 6-15 15-6 15 6 6 15-6 16zM173 332l-15-6-6-16 6-15 15-6 15 6 7 15-7 16zM243 332l-15-6-6-16 6-15 15-6 15 6 7 15-7 16zM311 332l-15-6-6-16 6-15 15-6 15 6 7 15-7 16z"/></g><path stroke="#000" stroke-width="6.1" d="M3 3h343v343H3Z"/><g fill="#000"><circle cx="69.2" cy="69.2" r="3.2"/><circle cx="138.3" cy="69.2" r="3.2"/><circle cx="207.5" cy="69.2" r="3.2"/><circle cx="276.7" cy="69.2" r="3.2"/><circle cx="69.2" cy="138.3" r="3.2"/><circle cx="138.3" cy="138.3" r="3.2"/><circle cx="207.5" cy="138.3" r="3.2"/><circle cx="276.7" cy="138.3" r="3.2"/><circle cx="69.2" cy="207.5" r="3.2"/><circle cx="138.3" cy="207.5" r="3.2"/><circle cx="207.5" cy="207.5" r="3.2"/><circle cx="276.7" cy="207.5" r="3.2"/><circle cx="69.2" cy="276.7" r="3.2"/><circle cx="138.3" cy="276.7" r="3.2"/><circle cx="207.5" cy="276.7" r="3.2"/><circle cx="276.7" cy="276.7" r="3.2"/></g><path stroke="#000" stroke-width="6" d="M69 69v69M69 138h69v139M138 277H69M69 207H0M207 138v69h139M277 69v69M138 69h69M207 277h70"/><path fill="red" d="m132 265-6 6 6 6-6 6 6 5 6-5 6 5 6-5-6-6 6-6-6-6-6 6-6-6M201 196l-6 6 6 5-6 6 6 6 6-6 6 6 6-6-6-6 6-5-6-6-6 6-6-6M202 127l-6 6 6 5-6 6 6 6 5-6 6 6 6-6-6-6 6-5-6-6-6 6-5-6M132 126l-5 6 5 6-5 6 5 6 6-6 6 6 6-6-6-6 6-6-6-6-6 6-6-6"/></svg>