<svg xmlns="http://www.w3.org/2000/svg" fill="none" viewBox="0 0 348 348"><path stroke="#000" stroke-width="2" d="M5 6h337v337H5z"/><path stroke="#000" stroke-width="2" d="M283 41c0-9 7-16 15-16 4 0 8 2 11 5a15 15 0 0 1 5 11c0 8-7 15-16 15s-15-7-15-15z"/><g stroke="#000"><path stroke-width="2" d="M132 13h83c7 0 12 5 12 12v83c0 7-6 14-12 17l-42 41-41-41c-5-4-12-10-12-17V25c0-7 5-12 12-12z"/><path stroke-width="2" d="M128 22h91v90h-91z"/><path stroke-width="1.5" d="m143 37-4 2-5-2-1-5 1-4 5-2 4 2 2 4zM161 37l-5 2-4-2-2-5 2-4 4-2 5 2 2 4zM178 37l-5 2-4-2-2-5 2-4 4-2 5 2 2 4zM195 37l-4 2-5-2-2-5 2-4 5-2 4 2 2 4zM212 37l-4 2-5-2-1-5 1-4 5-2 4 2 2 4zM143 54l-4 2-5-2-1-4 1-5 5-2 4 2 2 5zM161 54l-5 2-4-2-2-4 2-5 4-2 5 2 2 5zM178 54l-5 2-4-2-2-4 2-5 4-2 5 2 2 5zM195 54l-4 2-5-2-2-4 2-5 5-2 4 2 2 5zM212 54l-4 2-5-2-1-4 1-5 5-2 4 2 2 5zM143 71l-4 2-5-2-1-4 1-5 5-1 4 1 2 5zM161 71l-5 2-4-2-2-4 2-5 4-1 5 1 2 5zM178 71l-5 2-4-2-2-4 2-5 4-1 5 1 2 5zM195 71l-4 2-5-2-2-4 2-5 5-1 4 1 2 5zM212 71l-4 2-5-2-1-4 1-5 5-1 4 1 2 5zM143 89l-4 2-5-2-1-5 1-4 5-2 4 2 2 4zM161 89l-5 2-4-2-2-5 2-4 4-2 5 2 2 4zM178 89l-5 2-4-2-2-5 2-4 4-2 5 2 2 4zM195 89l-4 2-5-2-2-5 2-4 5-2 4 2 2 4zM212 89l-4 2-5-2-1-5 1-4 5-2 4 2 2 4zM143 106l-4 2-5-2-1-5 1-4 5-2 4 2 2 4zM161 106l-5 2-4-2-2-5 2-4 4-2 5 2 2 4zM178 106l-5 2-4-2-2-5 2-4 4-2 5 2 2 4zM195 106l-4 2-5-2-2-5 2-4 5-2 4 2 2 4zM212 106l-4 2-5-2-1-5 1-4 5-2 4 2 2 4z"/><path stroke-width="2" d="m173 155-34-34h69z"/></g><g stroke="#000"><path stroke-width="2" d="M334 132v83c0 7-6 12-13 12h-82c-7 0-15-6-18-12l-41-41 41-42c5-5 11-12 18-12h82c7 0 13 5 13 12z"/><path stroke-width="2" d="M324 129v90h-90v-90z"/><path stroke-width="1.5" d="m309 144-1-5 1-4 5-2 5 2 1 4-1 5-5 2zM309 161l-1-5 1-4 5-2 5 2 1 4-1 5-5 2zM309 178l-1-4 1-5 5-2 5 2 1 5-1 4-5 2zM309 195l-1-4 1-5 5-2 5 2 1 5-1 4-5 2zM309 213l-1-5 1-4 5-2 5 2 1 4-1 5-5 2zM292 144l-2-5 2-4 5-2 4 2 2 4-2 5-4 2zM292 161l-2-5 2-4 5-2 4 2 2 4-2 5-4 2zM292 178l-2-4 2-5 5-2 4 2 2 5-2 4-4 2zM292 195l-2-4 2-5 5-2 4 2 2 5-2 4-4 2zM292 213l-2-5 2-4 5-2 4 2 2 4-2 5-4 2zM275 144l-2-5 2-4 5-2 4 2 2 4-2 5-4 2zM275 161l-2-5 2-4 5-2 4 2 2 4-2 5-4 2zM275 178l-2-4 2-5 5-2 4 2 2 5-2 4-4 2zM275 195l-2-4 2-5 5-2 4 2 2 5-2 4-4 2zM275 213l-2-5 2-4 5-2 4 2 2 4-2 5-4 2zM258 144l-2-5 2-4 4-2 5 2 2 4-2 5-5 2zM258 161l-2-5 2-4 4-2 5 2 2 4-2 5-5 2zM258 178l-2-4 2-5 4-2 5 2 2 5-2 4-5 2zM258 195l-2-4 2-5 4-2 5 2 2 5-2 4-5 2zM258 213l-2-5 2-4 4-2 5 2 2 4-2 5-5 2zM241 144l-2-5 2-4 4-2 5 2 1 4-1 5-5 2zM241 161l-2-5 2-4 4-2 5 2 1 4-1 5-5 2zM241 178l-2-4 2-5 4-2 5 2 1 5-1 4-5 2zM241 195l-2-4 2-5 4-2 5 2 1 5-1 4-5 2zM241 213l-2-5 2-4 4-2 5 2 1 4-1 5-5 2z"/><path stroke-width="2" d="m191 174 35-35v69z"/></g><g stroke="#000"><path stroke-width="2" d="M215 336h-83c-7 0-12-6-12-13v-82c0-7 6-15 12-18l41-41 42 41c5 5 12 11 12 18v82c0 7-5 13-12 13z"/><path stroke-width="2" d="M219 327h-91v-91h91z"/><path stroke-width="1.5" d="m203 312 5-2 4 2 2 4-2 5-4 1-5-1-1-5zM186 312l5-2 4 2 2 4-2 5-4 1-5-1-2-5zM169 312l4-2 5 2 2 4-2 5-5 1-4-1-2-5zM152 312l4-2 5 2 2 4-2 5-5 1-4-1-2-5zM134 312l5-2 4 2 2 4-2 5-4 1-5-1-1-5zM203 294l5-2 4 2 2 5-2 4-4 2-5-2-1-4zM186 294l5-2 4 2 2 5-2 4-4 2-5-2-2-4zM169 294l4-2 5 2 2 5-2 4-5 2-4-2-2-4zM152 294l4-2 5 2 2 5-2 4-5 2-4-2-2-4zM134 294l5-2 4 2 2 5-2 4-4 2-5-2-1-4zM203 277l5-2 4 2 2 5-2 4-4 2-5-2-1-4zM186 277l5-2 4 2 2 5-2 4-4 2-5-2-2-4zM169 277l4-2 5 2 2 5-2 4-5 2-4-2-2-4zM152 277l4-2 5 2 2 5-2 4-5 2-4-2-2-4zM134 277l5-2 4 2 2 5-2 4-4 2-5-2-1-4zM203 260l5-2 4 2 2 4-2 5-4 2-5-2-1-5zM186 260l5-2 4 2 2 4-2 5-4 2-5-2-2-5zM169 260l4-2 5 2 2 4-2 5-5 2-4-2-2-5zM152 260l4-2 5 2 2 4-2 5-5 2-4-2-2-5zM134 260l5-2 4 2 2 4-2 5-4 2-5-2-1-5zM203 243l5-2 4 2 2 4-2 5-4 1-5-1-1-5zM186 243l5-2 4 2 2 4-2 5-4 1-5-1-2-5zM169 243l4-2 5 2 2 4-2 5-5 1-4-1-2-5zM152 243l4-2 5 2 2 4-2 5-5 1-4-1-2-5zM134 243l5-2 4 2 2 4-2 5-4 1-5-1-1-5z"/><path stroke-width="2" d="m173 194 35 34h-69z"/></g><g stroke="#000"><path stroke-width="2" d="M14 215v-83c0-6 5-12 12-12h83c6 0 14 6 17 12l41 42-41 41c-5 5-11 13-17 13H26c-7 0-12-6-12-13z"/><path stroke-width="2" d="M23 219v-90h90v90z"/><path stroke-width="1.5" d="m38 204 1 4-1 5-5 2-4-2-2-5 2-4 4-2zM38 187l1 4-1 5-5 1-4-1-2-5 2-4 4-2zM38 169l1 5-1 4-5 2-4-2-2-4 2-5 4-2zM38 152l1 5-1 4-5 2-4-2-2-4 2-5 4-2zM38 135l1 4-1 5-5 2-4-2-2-5 2-4 4-2zM55 204l2 4-2 5-5 2-4-2-2-5 2-4 4-2zM55 187l2 4-2 5-5 1-4-1-2-5 2-4 4-2zM55 169l2 5-2 4-5 2-4-2-2-4 2-5 4-2zM55 152l2 5-2 4-5 2-4-2-2-4 2-5 4-2zM55 135l2 4-2 5-5 2-4-2-2-5 2-4 4-2zM72 204l2 4-2 5-4 2-5-2-2-5 2-4 5-2zM72 187l2 4-2 5-4 1-5-1-2-5 2-4 5-2zM72 169l2 5-2 4-4 2-5-2-2-4 2-5 5-2zM72 152l2 5-2 4-4 2-5-2-2-4 2-5 5-2zM72 135l2 4-2 5-4 2-5-2-2-5 2-4 5-2zM89 204l2 4-2 5-4 2-5-2-2-5 2-4 5-2zM89 187l2 4-2 5-4 1-5-1-2-5 2-4 5-2zM89 169l2 5-2 4-4 2-5-2-2-4 2-5 5-2zM89 152l2 5-2 4-4 2-5-2-2-4 2-5 5-2zM89 135l2 4-2 5-4 2-5-2-2-5 2-4 5-2zM107 204l1 4-1 5-5 2-4-2-2-5 2-4 4-2zM107 187l1 4-1 5-5 1-4-1-2-5 2-4 4-2zM107 169l1 5-1 4-5 2-4-2-2-4 2-5 4-2zM107 152l1 5-1 4-5 2-4-2-2-4 2-5 4-2zM107 135l1 4-1 5-5 2-4-2-2-5 2-4 4-2z"/><path stroke-width="2" d="m156 174-35 34v-68z"/></g><path stroke="#000" d="M140 32c4 4 5 11 10 13M140 47l9-13M176 51c5 3 11 6 13 11"/><path stroke="#000" d="M177 62c11-9 8-5 11-11M158 68c3 3 7 9 11 11"/><path stroke="#000" d="M157 81c10-13 4-11 11-13M159 89c9 4 8 5 11 11"/><path stroke="#000" d="M158 100c7-10 4-9 12-12M53 142c6-1 8 7 10 12"/><path stroke="#000" d="M52 153c5-3 8-7 10-12M87 158c6 0 7 11 13 11"/><path stroke="#000" d="M88 170c4-4 10-8 10-14M70 193c2 7 6 10 11 12"/><path stroke="#000" d="M70 206c6 1 8-7 10-12M34 156c6-6 8 13 10 13l2 1"/><path stroke="#000" d="M34 171c5-6 9-10 14-13M248 194c7 4 13 5 14 12"/><path stroke="#000" d="M248 206c6-3 10-9 13-15M298 137c6 1 5 16 10 18"/><path stroke="#000" d="M298 153c8-8 3-3 15-12M283 156c8 7 9 8 14 15"/><path stroke="#000" d="M283 170c5-5 7-13 12-18M300 192c-1 7 12 7 12 15"/><path stroke="#000" d="M300 206c-1-6 6-10 10-14M175 248c4 5 9 9 11 16"/><path stroke="#000" d="M176 262c3-4 11-6 13-11M142 284c3 6 8 10 10 14"/><path stroke="#000" d="M138 298c4-8 8-12 14-15M158 266c15 6 8 8 11 14M157 279l14-11M174 281c6 4 8 12 14 15"/><path stroke="#000" d="m176 297 8-7 4-2c2-1 0-3 1-4"/></svg>