<svg xmlns="http://www.w3.org/2000/svg" fill="none" viewBox="0 0 348 348"><g fill="#000" stroke-width="2.7" aria-label="3.000 MHz" font-family="Calibri" font-size="40" style="line-height:1.25;-inkscape-font-specification:Calibri;text-align:center" text-anchor="middle"><path d="m105 228-1 3-2 3-3 1-3 1h-3l-2-1h-1l-1-1v-3h1l1 1 2 1h5l1-1 1-2 1-1-1-2-1-2-2-1h-6v-3h6l1-1 1-2 1-2v-1l-1-1-2-1h-3l-2 1h-1l-1 1v-1h-1v-1l1-1 1-1h1l2-1h5l3 2 1 1v5l-1 2-1 1-2 1 2 1 2 1 1 2 1 2zM114 233v2l-2 1-2-1v-3l2-1 2 1v1zM136 223l-1 5-1 4-3 3-4 1-4-1-3-3-1-4-1-5 1-5 1-5 3-2 4-1 4 1q2 0 3 2l2 4v6zm-3 0-1-3v-3l-1-2-1-1-1-1h-4l-2 2-1 4v8l1 4 2 1 2 1h2l1-1 1-2 1-2v-2l1-3zM156 223v5l-2 4-3 3-4 1-4-1-2-3-2-4v-10l2-5 3-2 4-1 4 1 2 2 2 4v6zm-3 0v-3l-1-3v-2l-1-1-2-1h-4l-2 2-1 4v8l1 4 2 1 2 1h2l2-1 1-2v-2l1-2v-3zM177 223l-1 5-1 4-3 3-4 1-5-1-2-3-2-4v-5l1-5 1-5 3-2 4-1 4 1q2 0 3 2l1 4 1 6zm-4 0v-6l-1-2-1-1-1-1h-5l-2 2v4l-1 4 1 4 1 4 1 1 3 1h2l1-1 1-2 1-2v-5zM218 235h-1l-1 1-1-1v-22l-9 22h-1v1h-2v-1h-1l-8-22v22h-1l-1 1-1-1h-1v-23l1-1 1-1h3l1 1 1 1 7 19 8-19v-1h1v-1h4v1h1v1zM243 235h-1l-1 1-1-1h-1v-11h-11v11h-1l-1 1-1-1v-25h3v11h11v-11h4v1zM260 234v1h-12v-3h1l7-12h-7l-1-1v-2h12v3h-1v1l-8 12h9v1z"/></g><path stroke="#000" stroke-width="2" d="M5 6h337v337H5z"/><path stroke="#000" stroke-width="2" d="M283 41c0-9 7-16 15-16 4 0 8 2 11 5s5 7 5 11c0 8-7 15-16 15-8 0-15-7-15-15z"/><path stroke="#000" stroke-width="1.9" d="M22 129h306v142H22z"/><path stroke="#000" stroke-width="1.9" d="M36 140h277v29H36zM84 195h180v56H84zM87 21h78v38H87zM75 12h12v60H75zM165 12h12v60h-12zM177 21v40h6l1-6h6l4-6h14l4-4h1v-8h-1l-4-4h-14l-4-6h-6l-1-6ZM75 21v40h-6l-1-6h-6l-4-6H44l-5-4v-8l5-4h14l4-6h6l1-6Z"/><path fill="#000" d="M4 7c15 8 14 11 16 25l1 1c3 3 13 10 17 10l2-4c-4 0-12-6-15-7h-1v-1c-1-12-2-16-12-23L6 4ZM212 43h70l2-4h-70l-2 4z"/><rect width="86.8" height="43.5" x="133" y="286" stroke="#000" stroke-width="1.9" ry="9.8"/><g fill="#000" stroke-width="2.9" aria-label="TX" font-family="Calibri" font-size="42.8" style="line-height:1.25;-inkscape-font-specification:Calibri;text-align:center" text-anchor="middle"><path d="M175 297v1h-8v24h-4v-24h-8v-3h20v2zM197 321v1h-4l-6-11-6 11h-4v-1l7-13-7-12v-1h4v1l6 10 6-10v-1h3l1 1h-1l-7 12z"/></g><path stroke="#000" stroke-width="2.3" d="m28 223 44-25v50z" transform="matrix(.7 0 0 1 24 0)"/><path stroke="#000" stroke-width="2.3" d="m28 223 44-25v50z" transform="matrix(-.7 0 0 1 325 0)"/><path fill="#000" d="M47 136h3v38h-3z"/><path stroke="#000" stroke-width="2.1" d="M49 144v21M74 144v21M99 144v21M124 144v21M150 144v21M175 144v21M200 144v21M225 144v21M250 144v21M276 144v21M301 144v21M62 150v9M87 150v9M112 150v9M137 150v9M162 150v9M187 150v9M213 150v9M238 150v9M263 150v9M288 150v9"/></svg>